<svg width="255" height="255" viewBox="0 0 255 255" fill="none" xmlns="http://www.w3.org/2000/svg">
<g clip-path="url(#clip0_101_28)">
<rect width="254.129" height="254.129" rx="127.064" fill="#090A0C"/>
<ellipse cx="190.672" cy="45.4768" rx="0.715994" ry="0.696495" fill="white"/>
<g filter="url(#filter0_f_101_28)">
<ellipse cx="191.801" cy="134.798" rx="0.412737" ry="0.401492" fill="white"/>
</g>
<g filter="url(#filter1_f_101_28)">
<ellipse cx="82.1417" cy="177.568" rx="0.412729" ry="0.401492" fill="white"/>
</g>
<g filter="url(#filter2_f_101_28)">
<ellipse cx="253.716" cy="182.207" rx="0.412726" ry="0.401492" fill="white"/>
</g>
<ellipse cx="71.4581" cy="228.923" rx="0.689569" ry="0.670787" fill="white" fill-opacity="0.7"/>
<ellipse cx="81.8647" cy="101.308" rx="0.689567" ry="0.670787" fill="white" fill-opacity="0.7"/>
<ellipse cx="0.11967" cy="0.116412" rx="0.11967" ry="0.116412" transform="matrix(-1 0 0 1 111.524 127.931)" fill="white" fill-opacity="0.8"/>
<ellipse cx="0.119673" cy="0.116413" rx="0.119673" ry="0.116413" transform="matrix(-1 0 0 1 66.6657 0)" fill="white" fill-opacity="0.8"/>
<ellipse cx="0.119673" cy="0.116412" rx="0.119673" ry="0.116412" transform="matrix(-1 0 0 1 72.0847 109.005)" fill="white" fill-opacity="0.8"/>
<ellipse cx="0.11967" cy="0.116406" rx="0.11967" ry="0.116406" transform="matrix(-1 0 0 1 171.948 221.007)" fill="white" fill-opacity="0.8"/>
<ellipse cx="0.11967" cy="0.116413" rx="0.11967" ry="0.116413" transform="matrix(-1 0 0 1 145.29 24.3251)" fill="white" fill-opacity="0.8"/>
<ellipse cx="0.165922" cy="0.161409" rx="0.165922" ry="0.161409" transform="matrix(-1 0 0 1 243.328 253.806)" fill="white"/>
<ellipse cx="0.165919" cy="0.161398" rx="0.165919" ry="0.161398" transform="matrix(-1 0 0 1 59.6152 159.229)" fill="white"/>
<ellipse cx="0.165922" cy="0.161402" rx="0.165922" ry="0.161402" transform="matrix(-1 0 0 1 136.268 32.4526)" fill="white"/>
<ellipse cx="0.289556" cy="0.281671" rx="0.289556" ry="0.281671" transform="matrix(-1 0 0 1 145.051 137.037)" fill="white"/>
<ellipse cx="0.473361" cy="0.460468" rx="0.473361" ry="0.460468" transform="matrix(-1 0 0 1 0.946716 87.55)" fill="white"/>
<ellipse cx="0.473361" cy="0.460468" rx="0.473361" ry="0.460468" transform="matrix(-1 0 0 1 47.3485 44.7803)" fill="white"/>
<ellipse cx="0.473364" cy="0.460465" rx="0.473364" ry="0.460465" transform="matrix(-1 0 0 1 163.358 188.147)" fill="white"/>
<ellipse cx="0.0606482" cy="0.0589988" rx="0.0606482" ry="0.0589988" transform="matrix(-1 0 0 1 147.786 37.3928)" fill="white"/>
<ellipse cx="208.652" cy="190.672" rx="0.715994" ry="0.696495" transform="rotate(90 208.652 190.672)" fill="white"/>
<g filter="url(#filter3_f_101_28)">
<ellipse cx="119.33" cy="191.801" rx="0.412737" ry="0.401492" transform="rotate(90 119.33 191.801)" fill="white"/>
</g>
<g filter="url(#filter4_f_101_28)">
<ellipse cx="76.5606" cy="82.1417" rx="0.412729" ry="0.401492" transform="rotate(90 76.5606 82.1417)" fill="white"/>
</g>
<g filter="url(#filter5_f_101_28)">
<ellipse cx="71.9218" cy="253.716" rx="0.412726" ry="0.401492" transform="rotate(90 71.9218 253.716)" fill="white"/>
</g>
<ellipse cx="25.2049" cy="71.4581" rx="0.689569" ry="0.670787" transform="rotate(90 25.2049 71.4581)" fill="white" fill-opacity="0.7"/>
<ellipse cx="152.82" cy="81.8647" rx="0.689567" ry="0.670787" transform="rotate(90 152.82 81.8647)" fill="white" fill-opacity="0.7"/>
<ellipse cx="0.11967" cy="0.116412" rx="0.11967" ry="0.116412" transform="matrix(4.37114e-08 -1 -1 -4.37114e-08 126.198 111.524)" fill="white" fill-opacity="0.8"/>
<ellipse cx="0.119673" cy="0.116413" rx="0.119673" ry="0.116413" transform="matrix(4.37114e-08 -1 -1 -4.37114e-08 254.129 66.6657)" fill="white" fill-opacity="0.8"/>
<ellipse cx="0.119673" cy="0.116412" rx="0.119673" ry="0.116412" transform="matrix(4.37114e-08 -1 -1 -4.37114e-08 145.124 72.0847)" fill="white" fill-opacity="0.8"/>
<ellipse cx="0.11967" cy="0.116406" rx="0.11967" ry="0.116406" transform="matrix(4.37114e-08 -1 -1 -4.37114e-08 33.122 171.948)" fill="white" fill-opacity="0.8"/>
<ellipse cx="0.11967" cy="0.116413" rx="0.11967" ry="0.116413" transform="matrix(4.37114e-08 -1 -1 -4.37114e-08 229.803 145.29)" fill="white" fill-opacity="0.8"/>
<ellipse cx="0.165922" cy="0.161409" rx="0.165922" ry="0.161409" transform="matrix(4.37114e-08 -1 -1 -4.37114e-08 0.322968 243.328)" fill="white"/>
<ellipse cx="0.165919" cy="0.161398" rx="0.165919" ry="0.161398" transform="matrix(4.37114e-08 -1 -1 -4.37114e-08 94.8997 59.6152)" fill="white"/>
<ellipse cx="0.165922" cy="0.161402" rx="0.165922" ry="0.161402" transform="matrix(4.37114e-08 -1 -1 -4.37114e-08 221.676 136.268)" fill="white"/>
<ellipse cx="0.289556" cy="0.281671" rx="0.289556" ry="0.281671" transform="matrix(4.37114e-08 -1 -1 -4.37114e-08 117.091 145.051)" fill="white"/>
<ellipse cx="0.473361" cy="0.460468" rx="0.473361" ry="0.460468" transform="matrix(4.37114e-08 -1 -1 -4.37114e-08 166.579 0.946716)" fill="white"/>
<ellipse cx="0.473361" cy="0.460468" rx="0.473361" ry="0.460468" transform="matrix(4.37114e-08 -1 -1 -4.37114e-08 209.348 47.3485)" fill="white"/>
<ellipse cx="0.473364" cy="0.460465" rx="0.473364" ry="0.460465" transform="matrix(4.37114e-08 -1 -1 -4.37114e-08 65.9812 163.358)" fill="white"/>
<ellipse cx="0.0606482" cy="0.0589988" rx="0.0606482" ry="0.0589988" transform="matrix(4.37114e-08 -1 -1 -4.37114e-08 216.736 147.786)" fill="white"/>
<ellipse cx="161.117" cy="224.746" rx="0.715994" ry="0.696495" transform="rotate(122.838 161.117 224.746)" fill="white"/>
<g filter="url(#filter6_f_101_28)">
<ellipse cx="85.4563" cy="177.259" rx="0.412737" ry="0.401492" transform="rotate(122.838 85.4563 177.259)" fill="white"/>
</g>
<g filter="url(#filter7_f_101_28)">
<ellipse cx="108.985" cy="61.9303" rx="0.412729" ry="0.401492" transform="rotate(122.838 108.985 61.9303)" fill="white"/>
</g>
<g filter="url(#filter8_f_101_28)">
<ellipse cx="12.0492" cy="203.573" rx="0.412726" ry="0.401492" transform="rotate(122.838 12.0492 203.573)" fill="white"/>
</g>
<ellipse cx="71.6288" cy="25.1057" rx="0.689569" ry="0.670787" transform="rotate(122.838 71.6288 25.1057)" fill="white" fill-opacity="0.7"/>
<ellipse cx="173.209" cy="103.05" rx="0.689567" ry="0.670787" transform="rotate(122.838 173.209 103.05)" fill="white" fill-opacity="0.7"/>
<ellipse cx="0.11967" cy="0.116412" rx="0.11967" ry="0.116412" transform="matrix(0.542263 -0.840209 -0.840209 -0.542263 134.757 113.534)" fill="white" fill-opacity="0.8"/>
<ellipse cx="0.119673" cy="0.116412" rx="0.119673" ry="0.116412" transform="matrix(0.542263 -0.840209 -0.840209 -0.542263 172.046 90.6596)" fill="white" fill-opacity="0.8"/>
<ellipse cx="0.11967" cy="0.116406" rx="0.11967" ry="0.116406" transform="matrix(0.542263 -0.840209 -0.840209 -0.542263 23.7888 113.831)" fill="white" fill-opacity="0.8"/>
<ellipse cx="0.11967" cy="0.116413" rx="0.11967" ry="0.116413" transform="matrix(0.542263 -0.840209 -0.840209 -0.542263 203.498 198.086)" fill="white" fill-opacity="0.8"/>
<ellipse cx="0.165919" cy="0.161398" rx="0.165919" ry="0.161398" transform="matrix(0.542263 -0.840209 -0.840209 -0.542263 136.609 52.948)" fill="white"/>
<ellipse cx="0.165922" cy="0.161402" rx="0.165922" ry="0.161402" transform="matrix(0.542263 -0.840209 -0.840209 -0.542263 201.562 186.098)" fill="white"/>
<ellipse cx="0.289556" cy="0.281671" rx="0.289556" ry="0.281671" transform="matrix(0.542263 -0.840209 -0.840209 -0.542263 108.926 136.765)" fill="white"/>
<ellipse cx="0.473361" cy="0.460468" rx="0.473361" ry="0.460468" transform="matrix(0.542263 -0.840209 -0.840209 -0.542263 228.648 42.5229)" fill="white"/>
<ellipse cx="0.473361" cy="0.460468" rx="0.473361" ry="0.460468" transform="matrix(0.542263 -0.840209 -0.840209 -0.542263 239.421 104.703)" fill="white"/>
<ellipse cx="0.473364" cy="0.460465" rx="0.473364" ry="0.460465" transform="matrix(0.542263 -0.840209 -0.840209 -0.542263 56.0551 124.432)" fill="white"/>
<ellipse cx="0.0606482" cy="0.0589988" rx="0.0606482" ry="0.0589988" transform="matrix(0.542263 -0.840209 -0.840209 -0.542263 191.165 193.097)" fill="white"/>
<path d="M72.7035 164.8H54.6773L90.4586 65.7236H108.214L143.995 164.8H125.698L117.701 141.894H80.7001L72.7035 164.8ZM97.0998 95.2702L85.8504 127.257H112.686L101.301 95.2702C100.488 92.6951 99.5395 89.7133 99.2684 87.6803C98.8618 89.5778 98.0486 92.5595 97.0998 95.2702ZM154.792 164.8H135.953L158.994 132L135.953 97.8454H155.199L169.972 120.615L184.203 97.8454H202.772L180.002 131.729L202.094 164.8H183.119L168.888 142.708L154.792 164.8Z" fill="url(#paint0_linear_101_28)"/>
</g>
<rect x="0.806757" y="0.806757" width="252.515" height="252.515" rx="126.258" stroke="url(#paint1_linear_101_28)" stroke-width="1.61351"/>
<defs>
<filter id="filter0_f_101_28" x="188.564" y="131.573" width="6.47277" height="6.45028" filterUnits="userSpaceOnUse" color-interpolation-filters="sRGB">
<feFlood flood-opacity="0" result="BackgroundImageFix"/>
<feBlend mode="normal" in="SourceGraphic" in2="BackgroundImageFix" result="shape"/>
<feGaussianBlur stdDeviation="1.41182" result="effect1_foregroundBlur_101_28"/>
</filter>
<filter id="filter1_f_101_28" x="78.9053" y="174.343" width="6.47277" height="6.45028" filterUnits="userSpaceOnUse" color-interpolation-filters="sRGB">
<feFlood flood-opacity="0" result="BackgroundImageFix"/>
<feBlend mode="normal" in="SourceGraphic" in2="BackgroundImageFix" result="shape"/>
<feGaussianBlur stdDeviation="1.41182" result="effect1_foregroundBlur_101_28"/>
</filter>
<filter id="filter2_f_101_28" x="250.479" y="178.982" width="6.47275" height="6.45028" filterUnits="userSpaceOnUse" color-interpolation-filters="sRGB">
<feFlood flood-opacity="0" result="BackgroundImageFix"/>
<feBlend mode="normal" in="SourceGraphic" in2="BackgroundImageFix" result="shape"/>
<feGaussianBlur stdDeviation="1.41182" result="effect1_foregroundBlur_101_28"/>
</filter>
<filter id="filter3_f_101_28" x="116.105" y="188.564" width="6.45028" height="6.4728" filterUnits="userSpaceOnUse" color-interpolation-filters="sRGB">
<feFlood flood-opacity="0" result="BackgroundImageFix"/>
<feBlend mode="normal" in="SourceGraphic" in2="BackgroundImageFix" result="shape"/>
<feGaussianBlur stdDeviation="1.41182" result="effect1_foregroundBlur_101_28"/>
</filter>
<filter id="filter4_f_101_28" x="73.3355" y="78.9053" width="6.45028" height="6.47274" filterUnits="userSpaceOnUse" color-interpolation-filters="sRGB">
<feFlood flood-opacity="0" result="BackgroundImageFix"/>
<feBlend mode="normal" in="SourceGraphic" in2="BackgroundImageFix" result="shape"/>
<feGaussianBlur stdDeviation="1.41182" result="effect1_foregroundBlur_101_28"/>
</filter>
<filter id="filter5_f_101_28" x="68.6966" y="250.479" width="6.45028" height="6.47274" filterUnits="userSpaceOnUse" color-interpolation-filters="sRGB">
<feFlood flood-opacity="0" result="BackgroundImageFix"/>
<feBlend mode="normal" in="SourceGraphic" in2="BackgroundImageFix" result="shape"/>
<feGaussianBlur stdDeviation="1.41182" result="effect1_foregroundBlur_101_28"/>
</filter>
<filter id="filter6_f_101_28" x="82.2278" y="174.026" width="6.45705" height="6.46633" filterUnits="userSpaceOnUse" color-interpolation-filters="sRGB">
<feFlood flood-opacity="0" result="BackgroundImageFix"/>
<feBlend mode="normal" in="SourceGraphic" in2="BackgroundImageFix" result="shape"/>
<feGaussianBlur stdDeviation="1.41182" result="effect1_foregroundBlur_101_28"/>
</filter>
<filter id="filter7_f_101_28" x="105.756" y="58.6971" width="6.45702" height="6.46633" filterUnits="userSpaceOnUse" color-interpolation-filters="sRGB">
<feFlood flood-opacity="0" result="BackgroundImageFix"/>
<feBlend mode="normal" in="SourceGraphic" in2="BackgroundImageFix" result="shape"/>
<feGaussianBlur stdDeviation="1.41182" result="effect1_foregroundBlur_101_28"/>
</filter>
<filter id="filter8_f_101_28" x="8.8207" y="200.34" width="6.45702" height="6.46633" filterUnits="userSpaceOnUse" color-interpolation-filters="sRGB">
<feFlood flood-opacity="0" result="BackgroundImageFix"/>
<feBlend mode="normal" in="SourceGraphic" in2="BackgroundImageFix" result="shape"/>
<feGaussianBlur stdDeviation="1.41182" result="effect1_foregroundBlur_101_28"/>
</filter>
<linearGradient id="paint0_linear_101_28" x1="99.8992" y1="152.39" x2="171.518" y2="106.757" gradientUnits="userSpaceOnUse">
<stop offset="0.111804" stop-color="white"/>
</linearGradient>
<linearGradient id="paint1_linear_101_28" x1="10.1541" y1="191.353" x2="272.104" y2="-12.034" gradientUnits="userSpaceOnUse">
<stop stop-color="white"/>
</linearGradient>
<clipPath id="clip0_101_28">
<rect width="254.129" height="254.129" rx="127.064" fill="white"/>
</clipPath>
</defs>
</svg>
