<svg width="95" height="95" viewBox="0 0 95 95" fill="none" xmlns="http://www.w3.org/2000/svg">
<circle cx="46.9581" cy="46.9581" r="46.9581" transform="matrix(-1 0 0 1 94.6612 0.116211)" fill="url(#paint0_linear_1_2)"/>
<circle cx="35.5486" cy="35.5486" r="35.5486" transform="matrix(-1 0 0 1 83.2521 11.5259)" fill="black" fill-opacity="0.75"/>
<path d="M37.7876 35.1954V48.3433C37.7876 51.5265 37.6262 53.8331 37.3032 55.2632C36.9803 56.6934 36.2422 57.7198 35.0889 58.3426C33.9355 58.9654 32.0441 59.2768 29.4145 59.2768C26.7849 59.2768 24.8935 58.9654 23.7402 58.3426C22.5868 57.7198 21.8372 56.6934 21.4912 55.2632C21.1682 53.81 21.0068 51.5034 21.0068 48.3433V35.1954H26.4043V49.7619C26.4043 51.4457 26.4505 52.6106 26.5427 53.2565C26.6581 53.9023 26.9118 54.329 27.3039 54.5366C27.6961 54.7442 28.3996 54.848 29.4145 54.848C30.4294 54.848 31.1214 54.7442 31.4905 54.5366C31.8826 54.329 32.1248 53.9138 32.2171 53.2911C32.3324 52.6452 32.3901 51.4688 32.3901 49.7619V35.1954H37.7876ZM48.6022 59.2768C45.7189 59.2768 43.17 59.0807 40.9557 58.6886V54.4674C43.8159 54.6981 45.8458 54.8134 47.0452 54.8134C47.9909 54.8134 48.7291 54.7673 49.2596 54.675C49.7901 54.5828 50.1707 54.4213 50.4014 54.1906C50.609 53.983 50.7358 53.7293 50.782 53.4295C50.8512 53.1296 50.8858 52.7029 50.8858 52.1493C50.8858 51.4111 50.8396 50.8921 50.7474 50.5923C50.6551 50.2693 50.459 50.0387 50.1592 49.9003C49.8824 49.7619 49.398 49.635 48.706 49.5197L44.8654 48.9661C43.1124 48.7124 41.9245 48.0319 41.3017 46.9247C40.6789 45.8175 40.3675 44.2259 40.3675 42.15C40.3675 40.1432 40.7019 38.6093 41.3709 37.5482C42.0398 36.4871 42.9509 35.7836 44.1042 35.4376C45.2576 35.0916 46.7223 34.9186 48.4984 34.9186C50.6897 34.9186 52.9387 35.1493 55.2453 35.6106V39.7626C53.1694 39.5088 51.324 39.382 49.7094 39.382C48.0025 39.382 46.9068 39.5434 46.4224 39.8664C46.1456 40.0278 45.9726 40.2585 45.9034 40.5584C45.8342 40.8352 45.7996 41.2734 45.7996 41.8732C45.7996 42.5421 45.8342 43.0149 45.9034 43.2917C45.9726 43.5685 46.1226 43.7761 46.3532 43.9145C46.6069 44.0299 47.0337 44.1337 47.6334 44.2259L51.7508 44.8141C52.6734 44.9525 53.4346 45.1832 54.0343 45.5061C54.6571 45.8291 55.1646 46.3826 55.5567 47.1669C56.0411 48.1818 56.2833 49.635 56.2833 51.5265C56.2833 53.7408 55.9719 55.4132 55.3491 56.5434C54.7263 57.6737 53.8729 58.4118 52.7888 58.7578C51.7277 59.1038 50.3322 59.2768 48.6022 59.2768ZM71.1304 59L67.2552 51.0421H66.9784L63.1032 59H57.3251L63.726 47.0285L57.4289 35.1954H63.4146L67.1514 42.9111H67.4282L71.2342 35.1954H77.0469L70.7498 46.9247L77.1161 59H71.1304Z" fill="url(#paint1_linear_1_2)"/>
<defs>
<linearGradient id="paint0_linear_1_2" x1="77.1612" y1="48.3838" x2="120.161" y2="171.384" gradientUnits="userSpaceOnUse">
<stop stop-color="#FFC46B"/>
<stop offset="1" stop-color="#7C7A77" stop-opacity="0"/>
</linearGradient>
<linearGradient id="paint1_linear_1_2" x1="41.5" y1="31" x2="-39.0017" y2="119.256" gradientUnits="userSpaceOnUse">
<stop stop-color="#FFC46B"/>
<stop offset="0.9999" stop-color="#838281"/>
<stop offset="1" stop-color="#828282"/>
</linearGradient>
</defs>
</svg>
